<svg version="1.1" id="Layer_1" xmlns="http://www.w3.org/2000/svg" xmlns:xlink="http://www.w3.org/1999/xlink" x="0px" y="0px"
	 width="100%" viewBox="0 0 348 348" enable-background="new 0 0 348 348" xml:space="preserve">
<path fill="#000000" opacity="1.000000" stroke="none" 
	d="
M159.000000,349.000000 
	C106.000008,349.000000 53.500019,349.000000 1.000021,349.000000 
	C1.000014,233.000031 1.000014,117.000061 1.000007,1.000068 
	C116.999947,1.000045 232.999893,1.000045 348.999878,1.000023 
	C348.999939,116.999931 348.999939,232.999863 348.999969,348.999878 
	C285.833344,349.000000 222.666672,349.000000 159.000000,349.000000 
M123.436142,187.916214 
	C116.999329,186.280670 113.363548,181.595856 112.940887,175.359421 
	C112.360535,166.796188 116.878792,162.022812 125.073341,159.000626 
	C152.044769,158.944641 179.016190,158.888672 206.687881,158.957458 
	C212.615021,154.999161 212.996353,152.604736 208.087158,147.635910 
	C197.608139,137.029648 187.080246,126.470032 176.454147,116.011429 
	C171.667542,111.300262 166.158005,107.948845 158.517380,108.095634 
	C147.837677,108.062820 137.157928,108.009819 126.478355,108.036034 
	C125.636543,108.038094 124.796082,108.591179 123.193184,108.983459 
	C118.142509,109.674278 112.683670,109.378777 108.127403,111.264297 
	C99.058968,115.017090 90.152061,119.141037 82.574997,125.949036 
	C71.102646,136.256943 64.988708,149.471786 62.313564,163.881332 
	C59.700039,177.958984 62.832218,192.040573 69.094254,204.946976 
	C77.551239,222.377274 91.858185,233.197296 110.532082,237.544159 
	C117.045433,239.060318 124.152222,238.027161 131.441193,238.896896 
	C150.618805,238.876816 169.796402,238.856750 189.511261,238.948212 
	C189.690674,238.912628 189.870087,238.877045 190.972702,238.973618 
	C221.653076,238.929779 252.333450,238.885925 283.766510,238.954483 
	C291.789368,235.967148 292.429840,232.931061 286.318481,226.818024 
	C276.089752,216.586533 266.044342,206.160461 255.522690,196.239517 
	C251.968384,192.888168 247.203964,190.820251 242.064774,188.024445 
	C202.713028,188.071518 163.361282,188.118607 123.436142,187.916214 
z"/>
<path fill="#FF3108" opacity="1.000000" stroke="none" 
	d="
M130.987991,238.158249 
	C124.152222,238.027161 117.045433,239.060318 110.532082,237.544159 
	C91.858185,233.197296 77.551239,222.377274 69.094254,204.946976 
	C62.832218,192.040573 59.700039,177.958984 62.313564,163.881332 
	C64.988708,149.471786 71.102646,136.256943 82.574997,125.949036 
	C90.152061,119.141037 99.058968,115.017090 108.127403,111.264297 
	C112.683670,109.378777 118.142509,109.674278 124.036720,109.039780 
	C136.251709,109.001236 147.623154,108.906372 158.994614,108.811516 
	C166.158005,107.948845 171.667542,111.300262 176.454147,116.011429 
	C187.080246,126.470032 197.608139,137.029648 208.087158,147.635910 
	C212.996353,152.604736 212.615021,154.999161 205.991257,158.669342 
	C204.307648,158.260147 203.320770,158.034241 202.333679,158.033356 
	C177.686325,158.011078 153.038910,157.996201 128.391663,158.052246 
	C126.980751,158.055450 125.571236,158.672089 124.161072,159.003250 
	C116.878792,162.022812 112.360535,166.796188 112.940887,175.359421 
	C113.363548,181.595856 116.999329,186.280670 124.069183,188.267487 
	C125.685638,188.740509 126.668991,188.968185 127.652473,188.968735 
	C164.662994,188.989441 201.673538,188.998505 238.684006,188.956940 
	C240.120499,188.955322 241.556396,188.441132 242.992569,188.165802 
	C247.203964,190.820251 251.968384,192.888168 255.522690,196.239517 
	C266.044342,206.160461 276.089752,216.586533 286.318481,226.818024 
	C292.429840,232.931061 291.789368,235.967148 283.136292,238.551575 
	C258.195587,238.087097 233.885040,237.961731 209.574799,238.006348 
	C203.065872,238.018295 196.557907,238.548965 190.049500,238.841476 
	C189.870087,238.877045 189.690674,238.912628 188.980164,238.556854 
	C169.295364,238.163071 150.141678,238.160660 130.987991,238.158249 
z"/>
<path fill="#F06B52" opacity="1.000000" stroke="none" 
	d="
M242.528671,188.095123 
	C241.556396,188.441132 240.120499,188.955322 238.684006,188.956940 
	C201.673538,188.998505 164.662994,188.989441 127.652473,188.968735 
	C126.668991,188.968185 125.685638,188.740509 124.355881,188.392212 
	C163.361282,188.118607 202.713028,188.071518 242.528671,188.095123 
z"/>
<path fill="#F8D0C8" opacity="1.000000" stroke="none" 
	d="
M190.511108,238.907547 
	C196.557907,238.548965 203.065872,238.018295 209.574799,238.006348 
	C233.885040,237.961731 258.195587,238.087097 282.759949,238.495377 
	C252.333450,238.885925 221.653076,238.929779 190.511108,238.907547 
z"/>
<path fill="#F16C53" opacity="1.000000" stroke="none" 
	d="
M124.617203,159.001938 
	C125.571236,158.672089 126.980751,158.055450 128.391663,158.052246 
	C153.038910,157.996201 177.686325,158.011078 202.333679,158.033356 
	C203.320770,158.034241 204.307648,158.260147 205.641129,158.606949 
	C179.016190,158.888672 152.044769,158.944641 124.617203,159.001938 
z"/>
<path fill="#FCD2C9" opacity="1.000000" stroke="none" 
	d="
M131.214600,238.527573 
	C150.141678,238.160660 169.295364,238.163071 188.711533,238.501068 
	C169.796402,238.856750 150.618805,238.876816 131.214600,238.527573 
z"/>
<path fill="#F7D5CF" opacity="1.000000" stroke="none" 
	d="
M158.755997,108.453575 
	C147.623154,108.906372 136.251709,109.001236 124.417618,108.992134 
	C124.796082,108.591179 125.636543,108.038094 126.478355,108.036034 
	C137.157928,108.009819 147.837677,108.062820 158.755997,108.453575 
z"/>
</svg>